<svg xmlns="http://www.w3.org/2000/svg" width="260" height="56" fill="none" viewBox="0 0 260 56">
  <g clip-path="url(#clip0)">
    <path fill="url(#paint0_linear)" d="M2.112 12.75L23.726 1.08a4.113 4.113 0 013.971.03L48.75 12.96a4.032 4.032 0 011.489 1.467c.356.609.543 1.3.542 2.003v23.54c0 .714-.193 1.415-.561 2.03a4.034 4.034 0 01-1.53 1.47L27.665 54.94a4.112 4.112 0 01-3.9.02L2.133 43.46a4.036 4.036 0 01-1.56-1.47A3.953 3.953 0 010 39.94V16.26a3.953 3.953 0 01.57-2.034 4.035 4.035 0 011.542-1.466v-.01z"/>
    <path stroke="#fff" stroke-width="1.5" d="M41.943 37.232c-2.111 3.679-11.233 2.482-20.375-2.672-9.141-5.154-14.84-12.314-12.73-15.992 2.112-3.679 11.234-2.482 20.375 2.672s14.84 12.314 12.73 15.992z"/>
    <path stroke="#fff" stroke-width="1.5" d="M41.943 18.468c-2.111-3.679-11.233-2.482-20.375 2.672-9.141 5.154-14.84 12.314-12.73 15.992 2.112 3.679 11.234 2.482 20.375-2.672s14.84-12.314 12.73-15.992z"/>
    <path stroke="#fff" stroke-width="1.5" d="M25.462 8.98c-4.269 0-7.73 8.448-7.73 18.87s3.461 18.87 7.73 18.87c4.268 0 7.729-8.448 7.729-18.87S29.73 8.98 25.46 8.98z"/>
    <path fill="#fff" d="M28.478 27.72c0-1.69-1.382-3.06-3.087-3.06-1.705 0-3.088 1.37-3.088 3.06s1.383 3.06 3.088 3.06 3.087-1.37 3.087-3.06zM76.213 30.494h-2.917V37h-3.662V19.227h6.604c2.1 0 3.719.468 4.858 1.403 1.14.936 1.71 2.259 1.71 3.968 0 1.212-.265 2.225-.794 3.04-.521.805-1.315 1.448-2.38 1.928l3.845 7.263V37h-3.931l-3.333-6.506zm-2.917-2.967h2.954c.92 0 1.632-.232 2.136-.696.505-.471.757-1.118.757-1.94 0-.839-.24-1.498-.72-1.978-.472-.48-1.2-.72-2.185-.72h-2.942v5.334zm18.152 9.717c-1.937 0-3.516-.594-4.737-1.782-1.212-1.188-1.818-2.771-1.818-4.749v-.341c0-1.327.256-2.511.769-3.553.512-1.05 1.237-1.855 2.172-2.417.944-.57 2.019-.854 3.223-.854 1.807 0 3.227.57 4.26 1.709 1.042 1.14 1.563 2.755 1.563 4.846v1.44h-8.41c.113.863.455 1.555 1.025 2.076.577.52 1.306.78 2.185.78 1.359 0 2.42-.491 3.186-1.476l1.733 1.94c-.529.75-1.245 1.335-2.148 1.759-.904.415-1.905.622-3.003.622zm-.403-10.84c-.7 0-1.27.236-1.71.708-.43.472-.707 1.148-.83 2.027h4.908v-.281c-.016-.781-.228-1.384-.635-1.807-.407-.431-.984-.647-1.733-.647zM106.548 37c-.163-.317-.281-.712-.354-1.184-.855.952-1.965 1.428-3.333 1.428-1.294 0-2.368-.374-3.222-1.123-.847-.749-1.27-1.693-1.27-2.832 0-1.4.517-2.474 1.55-3.223 1.042-.748 2.544-1.127 4.505-1.135h1.623v-.757c0-.61-.158-1.098-.476-1.465-.309-.366-.801-.549-1.477-.549-.594 0-1.062.143-1.404.427-.333.285-.5.676-.5 1.172h-3.528c0-.765.236-1.473.708-2.124.472-.65 1.139-1.16 2.002-1.526.863-.374 1.831-.561 2.905-.561 1.628 0 2.918.41 3.87 1.233.96.814 1.44 1.961 1.44 3.442v5.725c.009 1.254.184 2.202.525 2.844V37h-3.564zm-2.918-2.454c.521 0 1.001-.114 1.441-.341.439-.236.765-.55.976-.94v-2.27h-1.318c-1.766 0-2.706.61-2.82 1.83l-.012.208c0 .44.155.801.464 1.086.309.285.732.427 1.269.427zm14.161-.146c.651 0 1.18-.18 1.586-.537.407-.358.619-.834.635-1.428h3.308a4.555 4.555 0 01-.732 2.465c-.48.741-1.139 1.319-1.978 1.734-.83.407-1.749.61-2.758.61-1.888 0-3.378-.598-4.468-1.794-1.091-1.205-1.636-2.865-1.636-4.98v-.233c0-2.034.541-3.658 1.624-4.87 1.082-1.213 2.567-1.82 4.455-1.82 1.652 0 2.975.473 3.967 1.417 1.001.936 1.51 2.185 1.526 3.747h-3.308c-.016-.683-.228-1.237-.635-1.66-.406-.431-.944-.647-1.611-.647-.822 0-1.444.301-1.868.904-.415.594-.622 1.562-.622 2.905v.366c0 1.36.207 2.336.622 2.93.415.594 1.046.89 1.893.89zm11.767-13.855v3.247h2.258v2.588h-2.258v6.592c0 .488.094.838.281 1.05.187.211.545.317 1.074.317.391 0 .737-.029 1.038-.086v2.674a7.269 7.269 0 01-2.137.317c-2.474 0-3.735-1.249-3.784-3.747V26.38h-1.928v-2.588h1.928v-3.247h3.528zM140.239 37V19.227h6.226c2.156 0 3.792.415 4.907 1.245 1.115.822 1.672 2.03 1.672 3.625 0 .87-.223 1.64-.671 2.307-.448.66-1.07 1.144-1.868 1.453.912.228 1.628.688 2.149 1.38.529.691.793 1.537.793 2.538 0 1.71-.545 3.003-1.635 3.882-1.091.88-2.645 1.327-4.664 1.343h-6.909zm3.662-7.74v4.798h3.138c.862 0 1.534-.203 2.014-.61.488-.415.732-.985.732-1.71 0-1.627-.842-2.453-2.527-2.477h-3.357zm0-2.587h2.71c1.848-.033 2.771-.77 2.771-2.21 0-.805-.236-1.383-.708-1.733-.464-.358-1.2-.537-2.209-.537h-2.564v4.48zm11.524 3.6c0-1.31.252-2.477.757-3.503.504-1.025 1.228-1.818 2.172-2.38.953-.561 2.055-.842 3.309-.842 1.782 0 3.234.545 4.358 1.636 1.131 1.09 1.761 2.571 1.892 4.443l.024.903c0 2.027-.566 3.654-1.697 4.883-1.131 1.22-2.649 1.831-4.553 1.831s-3.426-.61-4.565-1.83c-1.132-1.222-1.697-2.882-1.697-4.981v-.16zm3.528.257c0 1.253.236 2.214.708 2.881.472.66 1.147.989 2.026.989.855 0 1.522-.326 2.002-.977.48-.659.72-1.709.72-3.15 0-1.228-.24-2.18-.72-2.855-.48-.676-1.156-1.014-2.026-1.014-.863 0-1.53.338-2.002 1.014-.472.667-.708 1.704-.708 3.112zm14.88 6.47h-3.54V23.792h3.54V37zm-3.748-16.626c0-.529.175-.964.525-1.306.358-.342.843-.513 1.453-.513.602 0 1.082.171 1.44.513.358.342.538.777.538 1.306 0 .537-.184.977-.55 1.318-.358.342-.834.513-1.428.513s-1.074-.17-1.44-.513c-.359-.341-.538-.78-.538-1.318zM180.474 37h-3.54V18.25h3.54V37zm8.996.244c-1.937 0-3.515-.594-4.736-1.782-1.213-1.188-1.819-2.771-1.819-4.749v-.341c0-1.327.256-2.511.769-3.553.513-1.05 1.237-1.855 2.173-2.417.944-.57 2.018-.854 3.223-.854 1.806 0 3.226.57 4.26 1.709 1.042 1.14 1.562 2.755 1.562 4.846v1.44h-8.41c.114.863.455 1.555 1.025 2.076.578.52 1.306.78 2.185.78 1.359 0 2.421-.491 3.186-1.476l1.734 1.94c-.529.75-1.246 1.335-2.149 1.759-.903.415-1.904.622-3.003.622zm-.403-10.84c-.699 0-1.269.236-1.709.708-.431.472-.708 1.148-.83 2.027h4.908v-.281c-.017-.781-.228-1.384-.635-1.807-.407-.431-.985-.647-1.734-.647zm15.271.696a9.579 9.579 0 00-1.269-.098c-1.335 0-2.21.452-2.625 1.355V37h-3.527V23.792h3.332l.098 1.575c.708-1.213 1.688-1.82 2.942-1.82.39 0 .756.054 1.098.16l-.049 3.393zm13.599 3.418c0 2.035-.464 3.666-1.392 4.895-.919 1.22-2.164 1.831-3.735 1.831-1.335 0-2.413-.464-3.235-1.392v6.226h-3.528V23.792h3.272l.122 1.294c.854-1.025 1.969-1.538 3.345-1.538 1.627 0 2.893.602 3.796 1.807.903 1.204 1.355 2.864 1.355 4.98v.183zm-3.528-.256c0-1.23-.22-2.177-.659-2.845-.431-.667-1.062-1-1.892-1-1.107 0-1.868.423-2.283 1.269v5.408c.432.87 1.201 1.306 2.307 1.306 1.685 0 2.527-1.38 2.527-4.138zM223.857 37h-3.54V18.25h3.54V37zm10.572 0c-.163-.317-.281-.712-.354-1.184-.855.952-1.966 1.428-3.333 1.428-1.294 0-2.368-.374-3.222-1.123-.847-.749-1.27-1.693-1.27-2.832 0-1.4.517-2.474 1.55-3.223 1.042-.748 2.543-1.127 4.505-1.135h1.623v-.757c0-.61-.158-1.098-.476-1.465-.309-.366-.801-.549-1.477-.549-.594 0-1.062.143-1.404.427-.333.285-.5.676-.5 1.172h-3.528c0-.765.236-1.473.708-2.124.472-.65 1.139-1.16 2.002-1.526.863-.374 1.831-.561 2.905-.561 1.628 0 2.918.41 3.87 1.233.96.814 1.44 1.961 1.44 3.442v5.725c.008 1.254.183 2.202.525 2.844V37h-3.564zm-2.918-2.454c.521 0 1.001-.114 1.441-.341.439-.236.765-.55.976-.94v-2.27h-1.318c-1.766 0-2.706.61-2.82 1.83l-.012.208c0 .44.154.801.464 1.086.309.285.732.427 1.269.427zm12.891-14.001v3.247h2.258v2.588h-2.258v6.592c0 .488.093.838.281 1.05.187.211.545.317 1.074.317.39 0 .736-.029 1.037-.086v2.674a7.257 7.257 0 01-2.136.317c-2.474 0-3.735-1.249-3.784-3.747V26.38h-1.929v-2.588h1.929v-3.247h3.528zm10.303 16.7c-1.937 0-3.516-.595-4.737-1.783-1.212-1.188-1.819-2.771-1.819-4.749v-.341c0-1.327.257-2.511.769-3.553.513-1.05 1.237-1.855 2.173-2.417.944-.57 2.019-.854 3.223-.854 1.807 0 3.227.57 4.26 1.709 1.042 1.14 1.563 2.755 1.563 4.846v1.44h-8.411c.114.863.456 1.555 1.025 2.076.578.52 1.307.78 2.186.78 1.359 0 2.421-.491 3.186-1.476l1.733 1.94c-.529.75-1.245 1.335-2.148 1.759-.904.415-1.905.622-3.003.622zm-.403-10.84c-.7 0-1.27.235-1.709.707-.432.472-.708 1.148-.83 2.027h4.907v-.281c-.016-.781-.228-1.384-.635-1.807-.407-.431-.985-.647-1.733-.647z"/>
  </g>
  <defs>
    <linearGradient id="paint0_linear" x1="24.375" x2="26.344" y1="76" y2="19.498" gradientUnits="userSpaceOnUse">
      <stop stop-color="#F231A5"/>
      <stop offset="1" stop-color="#FF66C2"/>
    </linearGradient>
    <clipPath id="clip0">
      <path fill="#fff" d="M0 0h260v56H0z"/>
    </clipPath>
  </defs>
</svg>
